<svg width="26" height="26" viewBox="0 0 26 26" fill="none" xmlns="http://www.w3.org/2000/svg">
    <path d="M25.4357 11.8344C25.9474 11.3356 26.1281 10.6036 25.9073 9.92318C25.6861 9.24272 25.1097 8.75698 24.4017 8.6539L18.1063 7.73916C17.8382 7.70011 17.6065 7.53195 17.4868 7.28882L14.6723 1.58433C14.3562 0.943444 13.7148 0.545166 13 0.545166C12.2857 0.545166 11.6443 0.943444 11.3283 1.58433L8.51327 7.28882C8.39353 7.53195 8.16133 7.70011 7.89321 7.73916L1.59781 8.65442C0.890282 8.75698 0.313951 9.24272 0.0926852 9.92318C-0.12806 10.6036 0.0525971 11.3356 0.564371 11.8344L5.11932 16.2743C5.31351 16.4638 5.40254 16.7366 5.35672 17.0032L4.28163 23.273C4.16085 23.9774 4.44459 24.6756 5.023 25.0963C5.60089 25.5175 6.3532 25.5721 6.9868 25.2384L12.6168 22.2781C12.8568 22.1521 13.1432 22.1521 13.3832 22.2781L19.0138 25.2384C19.2886 25.3831 19.5864 25.4545 19.8827 25.4545C20.2674 25.4545 20.6506 25.3342 20.9775 25.0963C21.556 24.6756 21.8397 23.9774 21.7189 23.273L20.6433 17.0037C20.5975 16.7366 20.6865 16.4643 20.8807 16.2748L25.4357 11.8344ZM19.6177 17.1796L20.6928 23.449C20.7469 23.7645 20.6246 24.066 20.3653 24.2544C20.1055 24.4424 19.7822 24.4653 19.4985 24.3174L13.8679 21.3566C13.5966 21.2145 13.2978 21.1426 13 21.1426C12.7022 21.1426 12.4039 21.2145 12.1321 21.3571L6.50262 24.3174C6.21784 24.4653 5.89453 24.4424 5.63526 24.2544C5.37599 24.066 5.25416 23.765 5.30778 23.449L6.38287 17.1796C6.48648 16.5747 6.28604 15.9572 5.84663 15.5293L1.29116 11.0889C1.06157 10.865 0.983474 10.5495 1.08291 10.2449C1.18183 9.93984 1.43017 9.73055 1.74723 9.68421L8.0421 8.76948C8.64967 8.68149 9.17498 8.30039 9.44623 7.74957L12.2612 2.04509C12.4029 1.7577 12.6793 1.58642 12.9995 1.58642C13.3202 1.58642 13.5961 1.7577 13.7383 2.04509L16.5533 7.74957C16.8245 8.30039 17.3493 8.68149 17.9569 8.76948L24.2523 9.68421C24.5693 9.73055 24.8177 9.93984 24.9166 10.2449C25.0155 10.5495 24.9379 10.865 24.7083 11.0889L20.1534 15.5287C19.714 15.9572 19.5136 16.5742 19.6177 17.1796Z" fill="black"/>
</svg>
